# xmcd
#
# Track frame offsets:
#	150
#	14448
#	25621
#	45499
#	64081
#	80166
#	93130
#	114027
#	130201
#	141945
#	161407
#
# Disc length: 2299 seconds
# Revision: 0
# Processed by: cddbd v1.5.2PL0 Copyright (c) Steve Scherf et al.
# Submitted via: dBpowerAMP V12.0
#
DISCID=8108f90b
DTITLE=The Paul Butterfield Blues Band - The Paul Butterfield Blues Band
DYEAR=1965
DGENRE=Blues
TTITLE0=Born in Chicago
TTITLE1=Shake Your Money-Maker
TTITLE2=Blues with a Feeling
TTITLE3=Thank You Mr. Poobah
TTITLE4=I Got My Mojo Working
TTITLE5=Mellow Down Easy
TTITLE6=Screamin'
TTITLE7=Our Love Is Drifting
TTITLE8=Mystery Train
TTITLE9=Last Night
TTITLE10=Look Over Yonders Wall
EXTD=
EXTT0=
EXTT1=
EXTT2=
EXTT3=
EXTT4=
EXTT5=
EXTT6=
EXTT7=
EXTT8=
EXTT9=
EXTT10=
PLAYORDER=
